# xmcd
#
# Track frame offsets:
#	150
#	14527
#	31319
#	46535
#	66435
#	78649
#	96917
#	110862
#	127446
#	148438
#	165936
#	180493
#	197236
#
# Disc length: 2791 seconds
#
# Revision: 1
# Processed by: cddbd v1.5.2PL0 Copyright (c) Steve Scherf et al.
# Submitted via: audiograbber 1.83.01
#
DISCID=c00ae50d
DTITLE=Cherryholmes - Common Threads
DYEAR=2010
DGENRE=Bluegrass
TTITLE0=When It's Not With Me Every Day
TTITLE1=Live It
TTITLE2=Idle Minds
TTITLE3=Changed In a Moment
TTITLE4=The Harder I Fall
TTITLE5=It's Your Love
TTITLE6=Standing
TTITLE7=How Far Will You Go
TTITLE8=Making Pretend
TTITLE9=Weaver Of Lies
TTITLE10=I Am Your Conscience
TTITLE11=Just You
TTITLE12=Tattoo Of a Smudge
EXTD=
EXTT0=
EXTT1=
EXTT2=
EXTT3=
EXTT4=
EXTT5=
EXTT6=
EXTT7=
EXTT8=
EXTT9=
EXTT10=
EXTT11=
EXTT12=
PLAYORDER=
